<?xml version="1.0" encoding="utf-8"?>

<!DOCTYPE svg PUBLIC "-//W3C//DTD SVG 1.0//EN" "http://www.w3.org/TR/2001/REC-SVG-20010904/DTD/svg10.dtd">
<!-- Uploaded to: SVG Repo, www.svgrepo.com, Generator: SVG Repo Mixer Tools -->
<svg version="1.0" id="Layer_1" xmlns="http://www.w3.org/2000/svg" xmlns:xlink="http://www.w3.org/1999/xlink" 
	 width="800px" height="800px" viewBox="0 0 64 64" enable-background="new 0 0 64 64" xml:space="preserve">
<g>
	<circle fill="#45AAB8" cx="32" cy="32" r="24"/>
	<g>
		<path fill="#394240" d="M32,0C14.328,0,0,14.328,0,32s14.328,32,32,32s32-14.328,32-32S49.672,0,32,0z M32,56
			C18.746,56,8,45.254,8,32S18.746,8,32,8s24,10.746,24,24S45.254,56,32,56z"/>
		<path fill="#394240" d="M18,46l22-6l6-22l-22,6L18,46z M32,28c2.211,0,4,1.789,4,4s-1.789,4-4,4s-4-1.789-4-4S29.789,28,32,28z"/>
	</g>
	<circle fill="#F9EBB2" cx="32" cy="32" r="4"/>
</g>
</svg>