<svg xmlns="http://www.w3.org/2000/svg" xmlns:xlink="http://www.w3.org/1999/xlink" width="20" height="20" viewBox="0 0 20 20">
  <defs>
    <clipPath id="clip-redo">
      <rect width="20" height="20"/>
    </clipPath>
  </defs>
  <g id="redo" clip-path="url(#clip-redo)">
    <g id="Group_156" data-name="Group 156" transform="translate(-167.113 -176.315)">
      <g id="Group_155" data-name="Group 155" transform="translate(172.046 181.079)">
        <path id="Path_612" data-name="Path 612" d="M350.732,179.149h4.789l-2.938-2.468a.308.308,0,1,1,.331-.52l3.861,3.056a.308.308,0,0,1,0,.52l-3.861,3.056a.308.308,0,1,1-.331-.52l2.938-2.468h-4.788a2.83,2.83,0,0,0,0,5.659h2.2a.328.328,0,1,1,0,.656h-2.2a3.485,3.485,0,0,1,0-6.971Z" transform="translate(-347.015 -175.881)" fill="#fff"/>
        <path id="Path_613" data-name="Path 613" d="M351.162,184.584h-2.2a3.718,3.718,0,0,1,0-7.435h4.151l-2.44-2.05a.54.54,0,0,1-.152-.737.542.542,0,0,1,.746-.166l.02.014,3.853,3.05a.54.54,0,0,1,0,.9l-3.874,3.064a.541.541,0,0,1-.745-.166.54.54,0,0,1,.152-.737l2.44-2.05h-4.151a2.6,2.6,0,0,0,0,5.2h2.2a.56.56,0,1,1,0,1.12Zm-2.2-6.971a3.253,3.253,0,1,0,0,6.507h2.2a.1.1,0,1,0,0-.192h-2.2a3.062,3.062,0,0,1,0-6.123h5.426l-3.451,2.9a.077.077,0,0,0-.034.048.074.074,0,0,0,.01.057.078.078,0,0,0,.1.027l3.868-3.059a.076.076,0,0,0,0-.129l-.019-.013-3.849-3.046a.078.078,0,0,0-.1.027.074.074,0,0,0-.01.057.077.077,0,0,0,.034.048l.025.018,3.426,2.878Z" transform="translate(-345.246 -174.112)" fill="#fff"/>
      </g>
    </g>
  </g>
</svg>
